:SAMPLES-PER-SECOND 30
:FULLY-SPECIFIED
:DEGREES
455
root  5.84125 39.6891 -11.4392 -147.679 -77.3809 140.901
RightUpLeg  -22.2058 -7.19406 -11.8319
RightLeg  59.2885 -1.69244 -3.5367
RightFoot  5.36076 -0.41122 3.0356
RightToes  0.000482159 0.542163 -0.142577
Spine  1.47833 0.135255 -7.83256
Spine1  16.5279 1.07975 -2.53606
HEad  21.551 4.24373 -2.38346
LeftShoulder1  7.40169 -12.6127 -39.6955
LeftArm  -11.6275 17.3942 -25.0165
LeftForeArm  56.0743 -78.664 -73.4859
LeftHand  -0.25398 0.0180481 5.50724
RightShoulder  4.92793 8.79057 34.1338
RightArm  -10.1808 -18.1373 24.8584
RightForeArm  34.7759 77.3836 100.892
RightHand  1.30771 -15.1715 -16.0958
LeftUpLeg  -3.77573 13.2779 -9.98183
LeftLeg  13.63 9.24266 -1.96645
LeftFoot  -5.38456 -0.224432 4.94395
LeftToes  1.06247e-005 4.65855e-005 -8.18504e-006
456
root  4.42185 39.8755 -11.4487 -145.513 -77.4048 139.289
RightUpLeg  -24.8981 -7.67672 -10.928
RightLeg  51.1078 -3.24742 -4.63945
RightFoot  4.2641 -0.258373 2.10246
RightToes  0.000482159 0.542163 -0.142577
Spine  0.678573 -0.241748 -8.62435
Spine1  16.4128 0.403223 -1.58873
HEad  22.8398 4.48049 -2.38514
LeftShoulder1  7.39194 -12.6111 -39.642
LeftArm  -11.4104 17.2865 -25.4756
LeftForeArm  54.1229 -78.5381 -71.3098
LeftHand  -0.25398 0.0180481 5.50724
RightShoulder  4.88058 8.79378 33.7419
RightArm  -10.1368 -18.2318 24.7594
RightForeArm  33.5653 77.4257 99.7815
RightHand  1.30909 -15.1697 -16.1143
LeftUpLeg  -0.349463 6.97731 -9.86025
LeftLeg  10.214 14.7165 -3.84917
LeftFoot  -6.33144 -0.158276 4.4772
LeftToes  1.06247e-005 4.65855e-005 -8.18504e-006
457
root  2.98694 39.8861 -11.5268 -141.925 -77.5886 136.122
RightUpLeg  -25.8806 -8.93521 -10.0979
RightLeg  40.4766 -4.89112 -4.74984
RightFoot  2.55631 -0.313825 2.73402
RightToes  0.000482159 0.542163 -0.142577
Spine  0.0163402 -0.709232 -9.89961
Spine1  16.3997 -0.371814 -0.788896
HEad  23.8959 4.49428 -2.35169
LeftShoulder1  7.35601 -12.5837 -39.5044
LeftArm  -11.3424 16.9536 -25.9355
LeftForeArm  52.5383 -78.4257 -69.6755
LeftHand  -0.25398 0.0180481 5.50724
RightShoulder  4.83341 8.80046 33.3394
RightArm  -10.1671 -18.3694 24.7501
RightForeArm  33.7822 77.4062 100.203
RightHand  1.29908 -14.9623 -16.328
LeftUpLeg  2.12444 3.16473 -10.3734
LeftLeg  8.7222 17.3573 -4.86415
LeftFoot  -7.87327 -0.0571937 3.40851
LeftToes  1.06247e-005 4.65855e-005 -8.18504e-006
458
root  1.48916 39.7523 -11.6225 -135.994 -77.6756 130.471
RightUpLeg  -25.8434 -12.5246 -9.14765
RightLeg  28.49 -4.15825 -2.92242
RightFoot  1.42927 -0.441138 4.01465
RightToes  0.000482159 0.542163 -0.142577
Spine  -0.682171 -1.24275 -11.2661
Spine1  16.644 -1.02947 -0.429648
HEad  24.8375 4.12821 -2.27741
LeftShoulder1  7.37383 -12.6397 -39.4586
LeftArm  -11.2644 16.1523 -26.109
LeftForeArm  50.6832 -78.2848 -67.8933
LeftHand  -0.25398 0.0180481 5.50724
RightShoulder  4.79414 8.75593 33.1627
RightArm  -10.5157 -18.5407 24.7607
RightForeArm  35.4996 77.3157 102.2
RightHand  1.2975 -14.7891 -16.5916
LeftUpLeg  4.19618 1.6949 -11.6495
LeftLeg  8.78226 17.9777 -4.69455
LeftFoot  -9.89818 0.0303397 2.43214
LeftToes  1.06247e-005 4.65855e-005 -8.18504e-006
459
root  -0.0367722 39.6327 -11.7191 -131.511 -77.8883 125.983
RightUpLeg  -24.8183 -16.4854 -7.80359
RightLeg  15.8463 -1.95165 0.0973142
RightFoot  1.36014 -0.463285 4.23701
RightToes  0.000482159 0.542163 -0.142577
Spine  -1.22735 -1.62873 -11.7084
Spine1  17.1695 -1.49769 -0.0564643
HEad  26.0039 3.56034 -2.17873
LeftShoulder1  7.40523 -12.6961 -39.4916
LeftArm  -11.2225 15.1765 -26.1504
LeftForeArm  49.405 -78.176 -66.5891
LeftHand  -0.25398 0.0180481 5.50724
RightShoulder  4.76781 8.69196 33.1519
RightArm  -11.0218 -18.7239 24.7765
RightForeArm  37.8781 77.1828 104.713
RightHand  1.30049 -14.7255 -16.7332
LeftUpLeg  7.27043 1.50126 -12.5455
LeftLeg  7.81895 17.4488 -4.64128
LeftFoot  -11.6006 0.0747721 2.04026
LeftToes  1.06247e-005 4.65855e-005 -8.18504e-006
460
root  -1.60133 39.445 -11.8679 -130.164 -77.8562 124.414
RightUpLeg  -22.3846 -13.596 -9.27663
RightLeg  4.20374 -6.10936 3.82991
RightFoot  1.08682 -0.562629 5.25313
RightToes  0.000482159 0.542163 -0.142577
Spine  -1.66498 -1.63387 -11.6861
Spine1  17.6948 -1.57517 0.281412
HEad  27.4558 2.95361 -2.10015
LeftShoulder1  7.40063 -12.6759 -39.5189
LeftArm  -11.3358 14.3525 -26.3914
LeftForeArm  48.5271 -78.09 -65.5535
LeftHand  -0.25398 0.0180481 5.50724
RightShoulder  4.74346 8.61652 33.1942
RightArm  -11.446 -18.7875 24.8307
RightForeArm  39.3385 77.1029 106.061
RightHand  1.27887 -14.5737 -16.7351
LeftUpLeg  10.5514 1.92862 -12.697
LeftLeg  7.1199 16.3695 -5.00763
LeftFoot  -13.7204 0.102228 1.10588
LeftToes  1.06247e-005 4.65855e-005 -8.18504e-006
